<?xml version="1.0" encoding="utf-8"?>
<!-- Generator: Adobe Illustrator 19.1.0, SVG Export Plug-In . SVG Version: 6.00 Build 0)  -->
<svg version="1.1" id="Calque_1" xmlns="http://www.w3.org/2000/svg" xmlns:xlink="http://www.w3.org/1999/xlink" x="0px" y="0px"
	 viewBox="-545 370.9 100 100" style="enable-background:new -545 370.9 100 100;" xml:space="preserve">
<style type="text/css">
	.st0{clip-path:url(#SVGID_2_);}
	.st1{clip-path:url(#SVGID_4_);}
	.st2{fill:#D69718;}
	.st3{fill:#BF8715;}
	.st4{clip-path:url(#SVGID_6_);fill:#262626;stroke:url(#SVGID_7_);stroke-width:4;stroke-linecap:square;stroke-miterlimit:10;}
	.st5{clip-path:url(#SVGID_9_);}
	.st6{fill:#171717;}
	.st7{fill:#803D2B;}
	.st8{fill:#912626;}
	.st9{fill:#C6302B;}
	.st10{fill:#FFFFFF;}
	.st11{fill:#621B1C;}
	.st12{fill:#9A2928;}
</style>
<g id="Adapter">
	<g>
		<g>
			<g>
				<defs>
					<rect id="SVGID_1_" x="-545" y="370.9" width="100" height="100"/>
				</defs>
				<clipPath id="SVGID_2_">
					<use xlink:href="#SVGID_1_"  style="overflow:visible;"/>
				</clipPath>
				<polyline class="st0" points="-545,370.9 -545,470.9 -459.5,470.9 -459.5,462.6 -518,462.6 -518,379.2 -459.5,379.2 
					-459.5,370.9 -545,370.9 				"/>
			</g>
		</g>
		<g>
			<g>
				<defs>
					<rect id="SVGID_3_" x="-545" y="370.9" width="100" height="100"/>
				</defs>
				<clipPath id="SVGID_4_">
					<use xlink:href="#SVGID_3_"  style="overflow:visible;"/>
				</clipPath>
				<g class="st1">
					<polygon class="st2" points="-529.5,449.9 -531,448.4 -531,393.4 -529.5,391.9 -513.8,391.9 -512.3,393.4 -512.3,448.4 
						-513.8,449.9 					"/>
					<path class="st3" d="M-513.8,393.4v55h-15.7v-55H-513.8 M-513.8,390.4h-15.7l-3,3v55l3,3h15.8l3-3v-55L-513.8,390.4
						L-513.8,390.4z"/>
				</g>
			</g>
		</g>
		<g>
			<g>
				<defs>
					<rect id="SVGID_5_" x="-545" y="370.9" width="100" height="100"/>
				</defs>
				<clipPath id="SVGID_6_">
					<use xlink:href="#SVGID_5_"  style="overflow:visible;"/>
				</clipPath>
				
					<linearGradient id="SVGID_7_" gradientUnits="userSpaceOnUse" x1="-615.4" y1="421.11" x2="-459.9" y2="421.11" gradientTransform="matrix(1 0 0 1 0 -0.22)">
					<stop  offset="0" style="stop-color:#4085B7"/>
					<stop  offset="1" style="stop-color:#4085B7;stop-opacity:0"/>
				</linearGradient>
				<polyline class="st4" points="-613.4,379 -613.4,462.8 -461.9,462.8 -461.9,452.2 -537.6,452.2 -537.6,389.6 -461.9,389.6 
					-461.9,379 -613.4,379 				"/>
			</g>
		</g>
		<g>
			<g>
				<defs>
					<rect id="SVGID_8_" x="-545" y="370.9" width="100" height="100"/>
				</defs>
				<clipPath id="SVGID_9_">
					<use xlink:href="#SVGID_8_"  style="overflow:visible;"/>
				</clipPath>
				<g class="st5">
					<polygon class="st6" points="-518.5,457.6 -520.6,455.5 -520.6,386.2 -518.5,384.2 -449.2,384.2 -447.1,386.2 -447.1,455.5 
						-449.2,457.6 					"/>
					<path class="st7" d="M-449.2,386.2v69.3h-69.3v-69.3H-449.2 M-449.2,382.1h-69.3l-4.2,4.2v69.3l4.2,4.2h69.3l4.2-4.2v-69.4
						L-449.2,382.1L-449.2,382.1z"/>
				</g>
			</g>
		</g>
	</g>
</g>
<g id="Redis">
	<path class="st8" d="M-457.7,434c-3,1.6-18.7,8-22,9.8c-3.3,1.7-5.2,1.7-7.8,0.5c-2.6-1.3-19.3-8-22.3-9.4
		c-1.5-0.7-2.3-1.3-2.3-1.9v-5.7c0,0,21.7-4.7,25.2-6c3.5-1.3,4.7-1.3,7.7-0.2c3,1.1,20.8,4.3,23.8,5.4l0,5.6
		C-455.5,432.5-456.2,433.2-457.7,434"/>
	<path class="st9" d="M-457.7,428.3c-3,1.6-18.7,8-22,9.8c-3.3,1.7-5.2,1.7-7.8,0.5c-2.6-1.3-19.3-8-22.3-9.4
		c-3-1.4-3.1-2.4-0.1-3.6c3-1.2,19.5-7.7,23-8.9c3.5-1.3,4.7-1.3,7.7-0.2c3,1.1,18.6,7.3,21.5,8.4
		C-454.8,425.8-454.7,426.7-457.7,428.3"/>
	<path class="st8" d="M-457.7,424.7c-3,1.6-18.7,8-22,9.8c-3.3,1.7-5.2,1.7-7.8,0.5c-2.6-1.3-19.3-8-22.3-9.4
		c-1.5-0.7-2.3-1.3-2.3-1.9v-5.7c0,0,21.7-4.7,25.2-6c3.5-1.3,4.7-1.3,7.7-0.2c3,1.1,20.8,4.3,23.8,5.4l0,5.6
		C-455.5,423.3-456.2,423.9-457.7,424.7"/>
	<path class="st9" d="M-457.7,419.1c-3,1.6-18.7,8-22,9.8c-3.3,1.7-5.2,1.7-7.8,0.5c-2.6-1.3-19.3-8-22.3-9.4
		c-3-1.4-3.1-2.4-0.1-3.6c3-1.2,19.5-7.7,23-8.9c3.5-1.3,4.7-1.3,7.7-0.2c3,1.1,18.6,7.3,21.5,8.4
		C-454.8,416.6-454.7,417.5-457.7,419.1"/>
	<path class="st8" d="M-457.7,415.1c-3,1.6-18.7,8-22,9.8c-3.3,1.7-5.2,1.7-7.8,0.5c-2.6-1.3-19.3-8-22.3-9.4
		c-1.5-0.7-2.3-1.3-2.3-1.9v-5.7c0,0,21.7-4.7,25.2-6c3.5-1.3,4.7-1.3,7.7-0.2c3,1.1,20.8,4.3,23.8,5.4l0,5.6
		C-455.5,413.7-456.2,414.3-457.7,415.1"/>
	<path class="st9" d="M-457.7,409.4c-3,1.6-18.7,8-22,9.8c-3.3,1.7-5.2,1.7-7.8,0.5c-2.6-1.3-19.3-8-22.3-9.4
		c-3-1.4-3.1-2.4-0.1-3.6c3-1.2,19.5-7.7,23-8.9c3.5-1.3,4.7-1.3,7.7-0.2c3,1.1,18.6,7.3,21.5,8.4
		C-454.8,406.9-454.7,407.8-457.7,409.4"/>
	<path class="st10" d="M-476.9,403.8l-4.9,0.5l-1.1,2.6l-1.8-2.9l-5.6-0.5l4.2-1.5l-1.3-2.3l3.9,1.5l3.7-1.2l-1,2.4L-476.9,403.8
		 M-483.2,416.5l-9.1-3.8l13-2L-483.2,416.5 M-495.8,405.3c3.8,0,7,1.2,7,2.7c0,1.5-3.1,2.7-7,2.7s-7-1.2-7-2.7
		C-502.8,406.5-499.6,405.3-495.8,405.3"/>
	<path class="st11" d="M-471.2,404.5l7.7,3l-7.7,3L-471.2,404.5"/>
	<path class="st12" d="M-479.7,407.9l8.5-3.4l0,6.1l-0.8,0.3L-479.7,407.9"/>
</g>
</svg>
